<?xml version="1.0" encoding="UTF-8" standalone="no"?>
<!-- Created with Inkscape (http://www.inkscape.org/) -->

<svg
   width="2000"
   height="2000"
   viewBox="0 0 529.16666 529.16668"
   version="1.1"
   id="svg5"
   xml:space="preserve"
   xmlns="http://www.w3.org/2000/svg"
   xmlns:svg="http://www.w3.org/2000/svg"><defs
     id="defs2"><rect
       x="1028.7431"
       y="522.06963"
       width="678.83048"
       height="320.51996"
       id="rect5089" /><rect
       x="1028.743"
       y="522.06964"
       width="678.83051"
       height="320.51996"
       id="rect5089-2" /><rect
       x="1028.743"
       y="522.06964"
       width="678.83051"
       height="320.51996"
       id="rect5089-2-4" /></defs><g
     id="layer1"><circle
       style="fill:#fe122e;fill-opacity:0.945498;stroke:none;stroke-width:2.9574;stroke-dasharray:none;stroke-dashoffset:28.8404;stroke-opacity:1"
       id="path3492"
       cx="204.91231"
       cy="267.86563"
       r="145.6067" /><path
       style="fill:none;fill-opacity:0.699052;stroke:#000000;stroke-width:1.85185;stroke-dasharray:none;stroke-dashoffset:28.8404;stroke-opacity:1"
       d="m 143.94509,122.66946 c 0,0 188.60718,-176.762301 179.49573,69.24709 -9.11145,246.00936 114.80439,72.89166 112.07095,43.735 -2.73345,-29.15668 -88.38116,-23.6898 -20.04521,-3.6446 68.33594,20.04523 64.69135,-59.22446 64.69135,-59.22446"
       id="path1647" /><path
       style="fill:none;fill-opacity:0.699052;stroke:#000000;stroke-width:2.13486;stroke-dasharray:none;stroke-dashoffset:28.8404;stroke-opacity:1"
       d="m 279.91311,361.30684 c 23.2757,-78.64891 82.91893,-218.00925 -138.70148,-114.72155 43.73501,-51.9353 90.20347,-27.33437 105.69294,-4.55572 -2.73343,18.22291 -9.11145,19.13405 -1.82229,27.33436"
       id="path2637" /><path
       style="fill:none;fill-opacity:0.699052;stroke:#000000;stroke-width:2.13486;stroke-dasharray:none;stroke-dashoffset:28.8404;stroke-opacity:1"
       d="m 195.28191,249.65034 c -29.15666,-0.91113 -47.69226,5.13525 -62.27057,6.95756 -14.57834,1.82228 15.48947,24.60092 15.48947,24.60092 20.04521,0.91115 24.60093,-25.51207 43.73503,-20.95634 19.13405,4.55573 50.113,23.29896 50.113,23.29896 -15.94503,15.12857 -65.6025,13.20637 -89.2923,4.55573"
       id="path2639" /><path
       style="fill:none;fill-opacity:0.699052;stroke:#000000;stroke-width:3.47343;stroke-dasharray:none;stroke-dashoffset:28.8404;stroke-opacity:1"
       d="m 181.13708,281.56237 c 0,0 4.74768,8.00219 11.55894,10.78614 5.76779,2.35748 13.01535,0.97311 20.11275,-12.18083"
       id="path2641" /><path
       style="fill:none;fill-opacity:0.699052;stroke:#000000;stroke-width:1.9;stroke-dasharray:none;stroke-dashoffset:28.8404;stroke-opacity:1"
       d="m 162.16801,285.76456 c 0,0 48.29073,-17.31176 71.06937,-0.91115"
       id="path2643" /><path
       style="fill:none;fill-opacity:0.699052;stroke:#000000;stroke-width:2.9574;stroke-dasharray:none;stroke-dashoffset:28.8404;stroke-opacity:1"
       d="m 260.11619,385.07945 c 0,0 19.58964,-4.55572 22.77862,3.18903"
       id="path2708" /><path
       style="fill:#fe122d;fill-opacity:0.94902;stroke:none;stroke-width:2.9574;stroke-dasharray:none;stroke-dashoffset:28.8404;stroke-opacity:1"
       d="m 254.19374,442.48164 c 0,0 -24.60094,-2.73343 0,-7.74473 17.76736,-17.31177 20.50079,-27.78996 38.26813,-19.13407 11.84489,-6.37801 12.75604,-10.47817 25.51209,-1.36673 12.75603,9.11148 43.735,19.13407 19.13407,22.32309 -21.86753,-4.55572 -20.50081,-11.38933 -25.5121,-7.28916 -5.01131,4.10014 -9.56705,6.8336 -14.57833,5.46687 -5.0113,-1.36673 -10.4782,-7.28916 -15.48949,-3.64459 -5.01128,3.64459 -6.83358,0 -15.48947,3.64459 -8.65588,3.64457 -11.8449,7.74473 -11.8449,7.74473 z"
       id="path3436" /><path
       style="fill:#fe122d;fill-opacity:0.94902;stroke:none;stroke-width:2.9574;stroke-dasharray:none;stroke-dashoffset:28.8404;stroke-opacity:1"
       d="m 252.82703,451.59313 c 0,0 39.17927,53.30201 87.46999,-4.55576 2.27787,-0.91115 0.91114,-5.0113 -10.0226,-3.64457 -10.93376,1.3667 -31.43453,8.65589 -43.27943,5.0113 -11.8449,-3.6446 -18.22292,-5.46687 -22.77865,-3.18901 -4.55573,2.27788 -11.38931,6.37804 -11.38931,6.37804 z"
       id="path3438" /><path
       style="fill:#e6122e;fill-opacity:0.699052;stroke:#000000;stroke-width:1.85185;stroke-dasharray:none;stroke-dashoffset:28.8404;stroke-opacity:1"
       d="m 169.11336,308.17095 -9.98629,12.88557 m 9.98629,-12.88557 -9.98629,12.88557"
       id="path3552" /><path
       style="fill:#e6122e;fill-opacity:0.699052;stroke:#000000;stroke-width:1.85185;stroke-dasharray:none;stroke-dashoffset:28.8404;stroke-opacity:1"
       d="m 183.93175,310.42592 -4.18779,19.00619"
       id="path3554" /><path
       style="fill:#e6122e;fill-opacity:0.699052;stroke:#000000;stroke-width:1.85185;stroke-dasharray:none;stroke-dashoffset:28.8404;stroke-opacity:1"
       d="m 196.81728,313.00303 0.32214,15.14052"
       id="path3556" /><path
       style="fill:#e6122e;fill-opacity:0.699052;stroke:#000000;stroke-width:1.85185;stroke-dasharray:none;stroke-dashoffset:28.8404;stroke-opacity:1"
       d="m 211.95783,313.00303 1.28853,16.42908"
       id="path3558" /><path
       style="fill:#e6122e;fill-opacity:0.699052;stroke:#000000;stroke-width:1.85185;stroke-dasharray:none;stroke-dashoffset:28.8404;stroke-opacity:1"
       d="m 226.13192,310.42592 6.76489,16.75123"
       id="path3560" /></g></svg>
