<?xml version="1.0" encoding="UTF-8" standalone="no"?>
<!-- Created with Inkscape (http://www.inkscape.org/) -->

<svg
   width="2000"
   height="2000"
   viewBox="0 0 529.16666 529.16668"
   version="1.1"
   id="svg5"
   xml:space="preserve"
   inkscape:version="1.2.1 (9c6d41e410, 2022-07-14)"
   sodipodi:docname="logo.svg"
   inkscape:export-filename="pure-logo.svg"
   inkscape:export-xdpi="96"
   inkscape:export-ydpi="96"
   xmlns:inkscape="http://www.inkscape.org/namespaces/inkscape"
   xmlns:sodipodi="http://sodipodi.sourceforge.net/DTD/sodipodi-0.dtd"
   xmlns="http://www.w3.org/2000/svg"
   xmlns:svg="http://www.w3.org/2000/svg"><sodipodi:namedview
     id="namedview7"
     pagecolor="#ffffff"
     bordercolor="#000000"
     borderopacity="0.25"
     inkscape:showpageshadow="2"
     inkscape:pageopacity="0.0"
     inkscape:pagecheckerboard="0"
     inkscape:deskcolor="#d1d1d1"
     inkscape:document-units="mm"
     showgrid="false"
     inkscape:zoom="0.35723204"
     inkscape:cx="1079.1305"
     inkscape:cy="1013.3469"
     inkscape:window-width="1920"
     inkscape:window-height="974"
     inkscape:window-x="-11"
     inkscape:window-y="-11"
     inkscape:window-maximized="1"
     inkscape:current-layer="layer1" /><defs
     id="defs2"><rect
       x="1028.7431"
       y="522.06963"
       width="678.83048"
       height="320.51996"
       id="rect5089" /><rect
       x="1028.743"
       y="522.06964"
       width="678.83051"
       height="320.51996"
       id="rect5089-2" /><rect
       x="1028.743"
       y="522.06964"
       width="678.83051"
       height="320.51996"
       id="rect5089-2-4" /></defs><g
     inkscape:label="Layer 1"
     inkscape:groupmode="layer"
     id="layer1"><circle
       style="fill:#fe122e;fill-opacity:0.94549769;stroke:none;stroke-width:2.51846;stroke-dasharray:none;stroke-dashoffset:28.8404;stroke-opacity:1"
       id="path3492"
       cx="322.05463"
       cy="147.3614"
       r="123.99564" /><path
       style="fill:none;fill-opacity:0.699052;stroke:#000000;stroke-width:1.577;stroke-dasharray:none;stroke-dashoffset:28.8404;stroke-opacity:1"
       d="m 94.60255,132.59069 c 0,0 160.61395,-150.527103 152.85483,58.96938 -7.75912,209.49645 97.76503,62.07301 95.43729,37.24381 -2.32775,-24.82922 -75.26356,-20.17374 -17.07008,-3.10366 58.19346,17.07009 55.0898,-50.43433 55.0898,-50.43433"
       id="path1647" /><path
       style="fill:none;fill-opacity:0.699052;stroke:#000000;stroke-width:1.501;stroke-dasharray:none;stroke-dashoffset:28.8404;stroke-opacity:1"
       d="m 215.64495,431.31713 c 0,0 -6.20729,53.538 5.4314,58.96936 11.63869,5.43139 45.00294,-21.72554 45.00294,-21.72554 0,0 75.26356,-45.77886 81.47085,-96.2132 6.2073,-50.43433 -13.96642,-76.81538 -3.87957,-104.74825 10.08687,-27.93283 45.00294,-58.96936 34.14019,-0.7759 -10.86278,58.19346 -7.23337,33.83754 0,51.98616 4.41062,11.0663 -26.53788,33.61503 -39.70471,16.45015 -17.36437,-22.63708 27.34524,-25.26091 30.2606,2.32773 1.75643,16.62113 9.44411,113.90323 -16.93695,120.88643 0,0 -24.05328,-18.62189 -18.62189,-51.21024"
       id="path2483"
       sodipodi:nodetypes="cscsssssscc" /><path
       style="fill:none;fill-opacity:0.699052;stroke:#000000;stroke-width:1.286;stroke-dasharray:none;stroke-dashoffset:28.8404;stroke-opacity:1"
       d="m 361.83796,338.76293 c 0,0 -8.08052,95.65784 -25.92651,63.06951"
       id="path2485"
       sodipodi:nodetypes="cc" /><path
       style="fill:none;fill-opacity:0.699052;stroke:#000000;stroke-width:1.818;stroke-dasharray:none;stroke-dashoffset:28.8404;stroke-opacity:1"
       d="m 181.5048,334.32801 c 12.41462,1.16388 72.09333,-132.32545 -89.230008,-96.21318 37.243828,-44.22703 76.815398,-23.27739 90.005908,-3.87956 -2.32773,15.51825 -7.75912,16.29416 -1.55182,23.27737"
       id="path2637"
       sodipodi:nodetypes="cccc" /><path
       style="fill:none;fill-opacity:0.699052;stroke:#000000;stroke-width:1.818;stroke-dasharray:none;stroke-dashoffset:28.8404;stroke-opacity:1"
       d="m 138.31992,240.72496 c -24.82921,-0.7759 -40.613734,4.37307 -53.028325,5.92491 -12.414613,1.55182 13.190511,20.94963 13.190511,20.94963 17.070084,0.77592 20.949644,-21.72554 37.243834,-17.84598 16.29417,3.87956 42.6752,19.84091 42.6752,19.84091 -13.57846,12.88317 -55.86573,11.24627 -76.03947,3.87956"
       id="path2639"
       sodipodi:nodetypes="cscscc" /><path
       style="fill:none;fill-opacity:0.699052;stroke:#000000;stroke-width:2.9579;stroke-dasharray:none;stroke-dashoffset:28.8404;stroke-opacity:1"
       d="m 126.27447,267.90058 c 0,0 4.04303,6.8145 9.84336,9.18525 4.91173,2.00758 11.0836,0.82868 17.1276,-10.37294"
       id="path2641"
       sodipodi:nodetypes="csc" /><path
       style="fill:none;fill-opacity:0.699052;stroke:#000000;stroke-width:1.618;stroke-dasharray:none;stroke-dashoffset:28.8404;stroke-opacity:1"
       d="m 110.12081,271.47908 c 0,0 41.12338,-14.74234 60.5212,-0.77592"
       id="path2643"
       sodipodi:nodetypes="cc" /><path
       style="fill:none;fill-opacity:0.699052;stroke:#000000;stroke-width:2.51846;stroke-dasharray:none;stroke-dashoffset:28.8404;stroke-opacity:1"
       d="m 193.53144,356.05357 c 0,0 16.68213,-3.87956 19.3978,2.71571"
       id="path2708" /><path
       style="fill:#fe122d;fill-opacity:0.94901961;stroke:none;stroke-width:2.51846;stroke-dasharray:none;stroke-dashoffset:28.8404;stroke-opacity:1"
       d="m 188.488,404.93608 c 0,0 -20.94964,-2.32773 0,-6.59525 15.13032,-14.74234 17.45805,-23.66535 32.58835,-16.29418 10.08686,-5.43138 10.86278,-8.92299 21.72557,-1.16387 10.86276,7.75914 37.24381,16.29417 16.29417,19.00988 -18.62193,-3.87956 -17.45806,-9.69892 -21.72557,-6.20731 -4.26753,3.4916 -8.1471,5.81936 -12.41461,4.65548 -4.26751,-1.16388 -8.92301,-6.2073 -13.19052,-3.10366 -4.26751,3.10366 -5.81934,0 -13.19051,3.10366 -7.37117,3.10364 -10.08688,6.59525 -10.08688,6.59525 z"
       id="path3436" /><path
       style="fill:#fe122d;fill-opacity:0.94901961;stroke:none;stroke-width:2.51846;stroke-dasharray:none;stroke-dashoffset:28.8404;stroke-opacity:1"
       d="m 187.32415,412.69523 c 0,0 33.36425,45.39089 74.48762,-3.87958 1.93978,-0.77592 0.77591,-4.26753 -8.53504,-3.10364 -9.31096,1.16385 -26.76899,7.37117 -36.85586,4.26751 -10.08687,-3.10366 -15.51826,-4.65547 -19.39782,-2.71569 -3.87957,1.93979 -9.6989,5.4314 -9.6989,5.4314 z"
       id="path3438" /><path
       style="fill:#e6122e;fill-opacity:0.699052;stroke:#000000;stroke-width:1.577;stroke-dasharray:none;stroke-dashoffset:28.8404;stroke-opacity:1"
       d="m 116.03533,290.55989 -8.50412,10.97308 m 8.50412,-10.97308 -8.50412,10.97308"
       id="path3552" /><path
       style="fill:#e6122e;fill-opacity:0.699052;stroke:#000000;stroke-width:1.577;stroke-dasharray:none;stroke-dashoffset:28.8404;stroke-opacity:1"
       d="m 128.65436,292.48018 -3.56624,16.18527"
       id="path3554" /><path
       style="fill:#e6122e;fill-opacity:0.699052;stroke:#000000;stroke-width:1.577;stroke-dasharray:none;stroke-dashoffset:28.8404;stroke-opacity:1"
       d="m 139.62741,294.67479 0.27433,12.89335"
       id="path3556" /><path
       style="fill:#e6122e;fill-opacity:0.699052;stroke:#000000;stroke-width:1.577;stroke-dasharray:none;stroke-dashoffset:28.8404;stroke-opacity:1"
       d="m 152.52079,294.67479 1.09728,13.99066"
       id="path3558" /><path
       style="fill:#e6122e;fill-opacity:0.699052;stroke:#000000;stroke-width:1.577;stroke-dasharray:none;stroke-dashoffset:28.8404;stroke-opacity:1"
       d="m 164.59115,292.48018 5.76084,14.26499"
       id="path3560" /></g></svg>
